<?xml version="1.0" encoding="utf-8"?>
<!-- Generator: Adobe Illustrator 16.0.0, SVG Export Plug-In . SVG Version: 6.00 Build 0)  -->
<!DOCTYPE svg PUBLIC "-//W3C//DTD SVG 1.1//EN" "http://www.w3.org/Graphics/SVG/1.1/DTD/svg11.dtd">
<svg version="1.1" id="圖層_1" xmlns="http://www.w3.org/2000/svg" xmlns:xlink="http://www.w3.org/1999/xlink" x="0px" y="0px"
	 width="595.28px" height="841.89px" viewBox="0 0 595.28 841.89" enable-background="new 0 0 595.28 841.89" xml:space="preserve">
<g>
	<g>
		<path fill-rule="evenodd" clip-rule="evenodd" fill="#FFFFFF" d="M2.024,686.991c0-199.678,0-399.354,0-599.032
			c198.328,0,396.657,0,594.985,0c0,199.678,0,399.354,0,599.032C398.681,686.991,200.352,686.991,2.024,686.991z M143.004,561.972
			c1.038,0.963,2.075,1.928,3.114,2.89c2.805-2.743,6.062-5.158,8.349-8.28c32.067-43.764,65.141-86.859,95.402-131.845
			c11.951-17.764,24.625-26.888,45.567-24.26c0.661,0.083,1.354,0.028,2.02-0.059c6.353-0.822,9.508,1.239,10.878,8.255
			c6.131,31.392,12.442,62.764,19.688,93.914c5.328,22.901,12.02,45.497,18.498,68.113c2.097,7.32,7.219,14.177,15.328,10.509
			c7.228-3.271,12.756-10.295,19.035-15.665c-0.874-1.057-1.748-2.116-2.622-3.176c-2.537,1.613-5.363,2.905-7.564,4.892
			c-12.754,11.506-16.126,10.729-21.619-5.444c-1.188-3.501-2.151-7.094-2.977-10.698c-8.188-35.766-16.41-71.521-24.433-107.324
			c-3.204-14.295-5.934-28.694-8.596-41.665c25.792-5.931,50.39-10.162,74.053-17.435c23.325-7.168,46.264-16.143,68.209-26.969
			c-0.552-1.802-1.104-3.604-1.655-5.405c-57.893,26.343-117.324,45.535-181.583,42.072c0-0.3-0.229-1.065,0.038-1.562
			c1.433-2.668,2.963-5.285,4.507-7.889c17.555-29.631,33.796-59.928,41.942-93.686c10.056-41.673-7.891-67.108-50.312-71.8
			c-11.696-1.292-23.529-1.33-35.296-1.986c-11.76-0.658-23.577-0.859-35.261-2.197c-12.122-1.39-14.454-6.285-8.998-17.163
			c1.636-3.263,3.918-6.285,6.305-9.075c9.202-10.763,18.666-21.303,27.8-32.124c2.28-2.702,3.687-6.14,5.495-9.239
			c-3.236-0.686-5.02-0.332-5.92,0.753c-13.082,15.785-26.82,31.107-38.786,47.707c-9.287,12.884-3.595,23.382,12.545,25.185
			c11.701,1.306,23.53,1.425,35.287,2.272c15.089,1.089,30.446,0.957,45.189,3.872c32.325,6.394,44.421,27.592,36.076,59.719
			c-10.367,39.908-27.68,76.826-51.128,110.384c-36.466,52.188-74.516,103.273-111.882,154.831
			C147.411,555.545,145.232,558.777,143.004,561.972z"/>
		<path fill-rule="evenodd" clip-rule="evenodd" d="M143.004,561.972c2.229-3.195,4.407-6.427,6.693-9.581
			c37.366-51.558,75.416-102.643,111.882-154.831c23.448-33.558,40.761-70.476,51.128-110.384
			c8.346-32.127-3.751-53.325-36.076-59.719c-14.743-2.915-30.1-2.782-45.189-3.872c-11.757-0.848-23.586-0.966-35.287-2.272
			c-16.14-1.802-21.832-12.301-12.545-25.185c11.966-16.599,25.704-31.921,38.786-47.707c0.9-1.085,2.684-1.438,5.92-0.753
			c-1.808,3.099-3.215,6.538-5.495,9.239c-9.134,10.82-18.598,21.36-27.8,32.124c-2.387,2.791-4.668,5.812-6.305,9.075
			c-5.456,10.877-3.124,15.773,8.998,17.163c11.684,1.338,23.5,1.539,35.261,2.197c11.767,0.656,23.601,0.694,35.296,1.986
			c42.421,4.692,60.367,30.127,50.312,71.8c-8.146,33.758-24.387,64.055-41.942,93.686c-1.543,2.604-3.074,5.221-4.507,7.889
			c-0.267,0.496-0.038,1.261-0.038,1.562c64.259,3.462,123.69-15.729,181.583-42.072c0.551,1.801,1.104,3.603,1.655,5.405
			c-21.945,10.827-44.884,19.801-68.209,26.969c-23.663,7.273-48.261,11.504-74.053,17.435c2.662,12.971,5.392,27.37,8.596,41.665
			c8.022,35.803,16.245,71.559,24.433,107.324c0.825,3.604,1.788,7.197,2.977,10.698c5.493,16.174,8.865,16.95,21.619,5.444
			c2.201-1.986,5.027-3.278,7.564-4.892c0.874,1.06,1.748,2.119,2.622,3.176c-6.279,5.37-11.808,12.394-19.035,15.665
			c-8.109,3.668-13.231-3.188-15.328-10.509c-6.479-22.616-13.17-45.212-18.498-68.113c-7.246-31.149-13.558-62.521-19.688-93.914
			c-1.37-7.016-4.525-9.077-10.878-8.255c-0.666,0.087-1.358,0.142-2.02,0.059c-20.942-2.628-33.616,6.496-45.567,24.26
			c-30.261,44.985-63.335,88.081-95.402,131.845c-2.288,3.122-5.544,5.537-8.349,8.28
			C145.079,563.9,144.042,562.935,143.004,561.972z"/>
	</g>
</g>
</svg>
